<?xml version="1.0" standalone="no"?><!DOCTYPE svg PUBLIC "-//W3C//DTD SVG 1.1//EN" "http://www.w3.org/Graphics/SVG/1.1/DTD/svg11.dtd"><svg t="1517928999611" class="icon" style="" viewBox="0 0 1024 1024" version="1.1" xmlns="http://www.w3.org/2000/svg" p-id="2079" xmlns:xlink="http://www.w3.org/1999/xlink" width="32" height="32"><defs><style type="text/css"></style></defs><path d="M833.536 390.4c-58.581333 0-91.008 43.264-97.877333 90.282667h196.608c-5.333333-44.8-36.992-90.24-98.730667-90.24m-96.426667 154.325333c10.026667 49.322667 50.901333 84.053333 108.032 84.053333 30.933333 0 75.52-11.52 101.717334-38.997333l50.133333 57.6c-45.397333 47.36-113.194667 60.842667-159.573333 60.842667-112.64 0-200.405333-81.322667-200.405334-196.522667 0-108.16 80.810667-197.12 194.986667-197.12 110.293333 0 192 84.48 192 196.437333v32.682667h-286.848v0.981333z m-276.778666 163.413333v-242.773333c0-41.642667-18.56-65.536-57.088-65.536-34.730667 0-57.813333 24.96-73.258667 42.965333v266.24h-100.266667v-243.2c0-41.642667-17.706667-65.365333-56.234666-65.365333-34.688 0-58.666667 25.002667-73.258667 42.922667v266.24H0V320.341333h100.266667v49.066667c17.066667-19.797333 55.552-53.76 115.626666-53.76 53.205333 0 89.429333 22.4 105.685334 67.84 22.357333-32.512 64-67.84 124.16-67.84 72.533333 0 114.773333 43.093333 114.773333 126.378667v266.24h-100.394667l0.213334-0.256z" fill="#ffffff" p-id="2080"></path></svg>