<?xml version="1.0" standalone="no"?><!DOCTYPE svg PUBLIC "-//W3C//DTD SVG 1.1//EN" "http://www.w3.org/Graphics/SVG/1.1/DTD/svg11.dtd"><svg t="1516975863230" class="icon" style="" viewBox="0 0 1024 1024" version="1.1" xmlns="http://www.w3.org/2000/svg" p-id="9058" xmlns:xlink="http://www.w3.org/1999/xlink" width="32" height="32"><defs><style type="text/css"></style></defs><path d="M778.113 95.01 250.999 95.01c-72.675 0-131.777 58.102-131.777 129.495l0 597.604c0 71.39 59.102 129.495 131.777 129.495l527.114 0c72.65 0 131.78-58.105 131.78-129.495L909.893 224.504C909.893 153.112 850.763 95.01 778.113 95.01zM849.053 822.108c0 38.45-31.815 69.72-70.94 69.72L250.999 891.828c-39.12 0-70.97-31.27-70.97-69.72L180.029 224.504c0-38.445 31.85-69.717 70.97-69.717l527.114 0c39.125 0 70.94 31.272 70.94 69.717L849.053 822.108zM299.579 356.509l227.234 0c16.795 0 30.405-13.385 30.405-29.857 0-16.535-13.61-29.887-30.405-29.887L299.579 296.765c-16.792 0-30.402 13.352-30.402 29.887C269.177 343.124 282.789 356.509 299.579 356.509zM729.533 493.434 299.579 493.434c-16.792 0-30.402 13.385-30.402 29.89s13.61 29.885 30.402 29.885l429.954 0c16.795 0 30.44-13.38 30.44-29.885S746.328 493.434 729.533 493.434zM729.533 690.103 299.579 690.103c-16.792 0-30.402 13.39-30.402 29.89 0 16.505 13.61 29.89 30.402 29.89l429.954 0c16.795 0 30.44-13.385 30.44-29.89C759.973 703.493 746.328 690.103 729.533 690.103z" p-id="9059" fill="#ffffff"></path></svg>