<?xml version="1.0" standalone="no"?><!DOCTYPE svg PUBLIC "-//W3C//DTD SVG 1.1//EN" "http://www.w3.org/Graphics/SVG/1.1/DTD/svg11.dtd"><svg t="1517753836450" class="icon" style="" viewBox="0 0 1024 1024" version="1.1" xmlns="http://www.w3.org/2000/svg" p-id="1905" xmlns:xlink="http://www.w3.org/1999/xlink" width="32" height="32"><defs><style type="text/css"></style></defs><path d="M893.1 448.2h-763c-35.2 0-63.9 28.8-63.9 63.9 0 35.2 28.8 63.9 63.9 63.9h763c35.2 0 63.9-28.8 63.9-63.9 0-35.1-28.8-63.9-63.9-63.9zM892.8 735.9h-763c-35.2 0-63.9 28.8-63.9 63.9 0 35.2 28.8 63.9 63.9 63.9h763c35.2 0 63.9-28.8 63.9-63.9 0-35.2-28.7-63.9-63.9-63.9zM893.8 163.4h-763c-35.2 0-63.9 28.8-63.9 63.9 0 35.2 28.8 63.9 63.9 63.9h763c35.2 0 63.9-28.8 63.9-63.9 0-35.2-28.8-63.9-63.9-63.9z" fill="#ffffff" p-id="1906"></path></svg>