<?xml version="1.0" standalone="no"?><!DOCTYPE svg PUBLIC "-//W3C//DTD SVG 1.1//EN" "http://www.w3.org/Graphics/SVG/1.1/DTD/svg11.dtd"><svg t="1515924384727" class="icon" style="" viewBox="0 0 1024 1024" version="1.1" xmlns="http://www.w3.org/2000/svg" p-id="6826" xmlns:xlink="http://www.w3.org/1999/xlink" width="32" height="32"><defs><style type="text/css"></style></defs><path d="M511.228735 511.267568m-511.228735 0a511.228735 511.228735 0 1 0 1022.457471 0 511.228735 511.228735 0 1 0-1022.457471 0Z" fill="#ED7826" p-id="6827"></path><path d="M874.256 151.19592c199.648599 199.657229 199.663701 523.355389 0 723.027719-199.648599 199.648599-523.37912 199.657229-723.034192 0L874.256 151.19592z" fill="#DB6D27" p-id="6828"></path><path d="M1004.426058 646.022067L637.660048 279.273316l-74.718826 74.727455-205.05716-28.818331 42.26746 191.599401-147.362248 147.362249 51.800939 51.800939-12.778183 12.778183 288.938394 288.947024c204.474667-27.802203 370.429248-176.424364 423.675634-371.648169z" fill="#CE6028" p-id="6829"></path><path d="M617.270615 781.960969c95.708012 0 173.453647-77.963531 173.99515-173.147298l1.074377-140.145801-1.607251-7.628508-4.59307-9.589571-7.781683-6.021257c-10.098713-7.911126-61.278326 0.532874-75.057535-11.971322-9.768633-8.927254-11.293903-25.064483-14.264621-46.925253-5.497014-42.347284-8.953142-44.56076-15.595726-58.905203-24.095818-50.985448-89.47533-89.298425-134.389901-94.586172h-121.667809c-95.723113 0-173.977891 78.084344-173.977891 173.445017V608.813671c0 95.18161 78.246148 173.147298 173.977891 173.147298h199.888069z m-197.672436-407.232056h96.450151c18.421899 0 33.340207 14.950669 33.340208 33.122312 0 18.098292-14.918308 33.178403-33.340208 33.178403h-96.450151c-18.41327 0-33.307846-15.080112-33.307847-33.178403 0.002157-18.171643 14.894577-33.122311 33.307847-33.122312z m-33.305689 231.510999c0-18.163013 14.894577-32.992868 33.307846-32.992868h195.991834c18.301086 0 33.154672 14.829855 33.154672 32.992868 0 17.936488-14.862216 32.999341-33.154672 32.999341h-195.991834c-18.415427 0-33.307846-15.062853-33.307846-32.999341z" fill="#FFFFFF" p-id="6830"></path></svg>