<?xml version="1.0" standalone="no"?><!DOCTYPE svg PUBLIC "-//W3C//DTD SVG 1.1//EN" "http://www.w3.org/Graphics/SVG/1.1/DTD/svg11.dtd"><svg t="1517758213299" class="icon" style="" viewBox="0 0 1024 1024" version="1.1" xmlns="http://www.w3.org/2000/svg" p-id="2886" xmlns:xlink="http://www.w3.org/1999/xlink" width="32" height="32"><defs><style type="text/css"></style></defs><path d="M555.096563 512.000978L894.74651 172.351031a29.254124 29.254124 0 0 0 8.626944-20.779801c0-16.210984-13.14293-29.350001-29.350001-29.350001a29.244341 29.244341 0 0 0-20.752407 8.597594l-0.001957-0.001957-339.679297 339.677341L173.918321 130.822736a29.256081 29.256081 0 0 0-20.756321-8.601507c-16.209027 0-29.351957 13.140974-29.351957 29.350001a29.252167 29.252167 0 0 0 8.59955 20.754364l339.677341 339.677341-339.679298 339.677341a29.248254 29.248254 0 0 0-8.59955 20.752407c0 16.209027 13.14293 29.348044 29.351957 29.348044 8.108427 0 15.445927-3.2872 20.756321-8.601507l339.673428-339.671471 339.679297 339.679298 0.001957-0.001957a29.252167 29.252167 0 0 0 20.752407 8.597594c16.20707 0 29.350001-13.139017 29.350001-29.350001 0-8.120167-3.300897-15.465494-8.626944-20.7798L555.096563 512.000978z" fill="#ffffff" p-id="2887"></path></svg>