<?xml version="1.0" standalone="no"?><!DOCTYPE svg PUBLIC "-//W3C//DTD SVG 1.1//EN" "http://www.w3.org/Graphics/SVG/1.1/DTD/svg11.dtd"><svg t="1515996259220" class="icon" style="" viewBox="0 0 1025 1024" version="1.1" xmlns="http://www.w3.org/2000/svg" p-id="10706" xmlns:xlink="http://www.w3.org/1999/xlink" width="32.03125" height="32"><defs><style type="text/css"></style></defs><path d="M1010.291623 819.106025c0 0 0 0 0 0L700.976201 509.790603l309.315422-309.315422c0 0 0 0 0 0 3.313639-3.345501 5.735144-7.232654 7.296377-11.374702 4.237634-11.310978 1.816129-24.565533-7.296377-33.678039L864.172904 9.303722c-9.112506-9.112506-22.367061-11.50215-33.678039-7.296377-4.142048 1.529372-8.029201 3.950877-11.374702 7.264515 0 0 0 0 0 0L509.804741 318.619144 200.489319 9.303722c0 0 0 0 0 0-3.345501-3.313639-7.232654-5.735144-11.374702-7.264515-11.34284-4.237634-24.565533-1.816129-33.678039 7.296377L9.317859 155.422441c-9.112506 9.112506-11.50215 22.367061-7.296377 33.678039 1.561234 4.142048 3.950877 8.029201 7.296377 11.374702 0 0 0 0 0 0L318.633281 509.790603 9.317859 819.106025c0 0 0 0 0 0-3.313639 3.345501-5.735144 7.232654-7.296377 11.374702-4.237634 11.310978-1.816129 24.565533 7.296377 33.678039l146.118719 146.118719c9.112506 9.112506 22.367061 11.50215 33.678039 7.296377 4.142048-1.561234 8.029201-3.950877 11.374702-7.296377 0 0 0 0 0 0l309.315422-309.315422 309.315422 309.315422c0 0 0 0 0 0 3.345501 3.313639 7.232654 5.735144 11.374702 7.296377 11.34284 4.237634 24.565533 1.816129 33.678039-7.296377l146.118719-146.118719c9.112506-9.112506 11.534011-22.367061 7.296377-33.678039C1016.026767 826.338679 1013.637124 822.451526 1010.291623 819.106025z" p-id="10707" fill="#ffffff"></path></svg>