<?xml version="1.0" standalone="no"?><!DOCTYPE svg PUBLIC "-//W3C//DTD SVG 1.1//EN" "http://www.w3.org/Graphics/SVG/1.1/DTD/svg11.dtd"><svg t="1517843309122" class="icon" style="" viewBox="0 0 1024 1024" version="1.1" xmlns="http://www.w3.org/2000/svg" p-id="2029" xmlns:xlink="http://www.w3.org/1999/xlink" width="32" height="32"><defs><style type="text/css"></style></defs><path d="M832 288a128 128 0 1 0-192.352 110.048v32.96c0 78.048-21.568 121.984-127.424 142.432A497.888 497.888 0 0 0 384 616.128V302.24a128 128 0 1 0-128 0v419.52a128 128 0 1 0 158.72 24.864 279.296 279.296 0 0 1 118.592-46.88c161.6-31.296 234.304-117.44 234.304-268.8v-32.512A127.456 127.456 0 0 0 832 288zM320 115.2A76.8 76.8 0 1 1 243.2 192 76.8 76.8 0 0 1 320 115.2z m0 793.6a76.8 76.8 0 1 1 76.8-76.8 76.8 76.8 0 0 1-76.8 76.8z m384-544A76.8 76.8 0 1 1 780.8 288a76.8 76.8 0 0 1-76.8 76.8z" fill="#ffffff" p-id="2030"></path></svg>